<svg width="20" height="21" viewBox="0 0 20 21" fill="none" xmlns="http://www.w3.org/2000/svg">
<path d="M18.6782 8.37951L18.2247 7.58731C18.2043 7.55239 18.1709 7.52695 18.1318 7.51656C18.0928 7.50616 18.0512 7.51165 18.0161 7.53182L17.046 8.09823L15.5477 3.96118C15.4686 3.71432 15.3131 3.49899 15.1036 3.34628C14.8941 3.19357 14.6416 3.11138 14.3823 3.11157H6.09102C5.42702 3.11157 4.83766 3.5402 4.63291 4.17358L3.20542 8.10014L2.23335 7.53373C2.1983 7.51356 2.15669 7.50807 2.11762 7.51847C2.07854 7.52887 2.04516 7.5543 2.02477 7.58923L1.57127 8.37951C1.52917 8.45223 1.55404 8.54408 1.62676 8.58617L2.78253 9.25974L2.50507 10.0251C2.4821 10.0864 2.47062 10.1514 2.47062 10.2165V16.8794C2.47062 17.1798 2.69642 17.4228 2.97388 17.4228H4.26743C4.50279 17.4228 4.70754 17.2449 4.75729 16.9961L4.90463 16.2747H15.3448L15.4922 16.9961C15.5438 17.2449 15.7467 17.4228 15.982 17.4228H17.2756C17.553 17.4228 17.7788 17.1798 17.7788 16.8794V10.2165C17.7788 10.1514 17.7674 10.0864 17.7444 10.0251L17.4669 9.25974L18.6208 8.58617C18.6555 8.56612 18.681 8.53323 18.6917 8.49458C18.7025 8.45593 18.6976 8.41461 18.6782 8.37951ZM5.37918 12.352C4.9563 12.352 4.61377 12.0095 4.61377 11.5866C4.61377 11.1637 4.9563 10.8212 5.37918 10.8212C5.80207 10.8212 6.1446 11.1637 6.1446 11.5866C6.1446 12.0095 5.80207 12.352 5.37918 12.352ZM12.8037 13.7871C12.8037 13.8713 12.7348 13.9402 12.6506 13.9402H7.59888C7.51468 13.9402 7.44579 13.8713 7.44579 13.7871V12.1798C7.44579 12.0956 7.51468 12.0267 7.59888 12.0267H8.36429C8.44848 12.0267 8.51737 12.0956 8.51737 12.1798V12.8686H11.7321V12.1798C11.7321 12.0956 11.801 12.0267 11.8852 12.0267H12.6506C12.7348 12.0267 12.8037 12.0956 12.8037 12.1798V13.7871ZM14.8703 12.352C14.4474 12.352 14.1049 12.0095 14.1049 11.5866C14.1049 11.1637 14.4474 10.8212 14.8703 10.8212C15.2932 10.8212 15.6357 11.1637 15.6357 11.5866C15.6357 12.0095 15.2932 12.352 14.8703 12.352ZM4.53723 8.46754L5.92837 4.64239L5.93793 4.61752L5.94559 4.59264C5.96664 4.5295 6.02404 4.4874 6.09102 4.4874H14.2733L15.7161 8.46754H4.53723Z" fill="#175730"/>
</svg>
