<svg width="16" height="17" viewBox="0 0 16 17" fill="none" xmlns="http://www.w3.org/2000/svg">
<g clip-path="url(#clip0_1_14746)">
<path d="M15.5599 1.02051H6.39325C6.16294 1.02051 5.97657 1.2069 5.97657 1.43726C5.97657 1.6676 6.16294 1.854 6.39325 1.854H14.554L1.09864 15.3115C0.935869 15.4743 0.935869 15.738 1.09864 15.9008C1.18001 15.9822 1.28665 16.0229 1.39325 16.0229C1.49985 16.0229 1.60645 15.9822 1.68786 15.9008L15.1433 2.44327V10.6053C15.1433 10.8357 15.3296 11.0221 15.5599 11.0221C15.7902 11.0221 15.9766 10.8357 15.9766 10.6053V1.43726C15.9766 1.2069 15.7902 1.02051 15.5599 1.02051Z" fill="#175730"/>
</g>
<defs>
<clipPath id="clip0_1_14746">
<rect width="15" height="15.94" fill="white" transform="translate(0.976562 0.391602)"/>
</clipPath>
</defs>
</svg>
