<svg width="16" height="17" viewBox="0 0 16 17" fill="none" xmlns="http://www.w3.org/2000/svg">
<g clip-path="url(#clip0_1_14783)">
<path d="M15.0599 1.09961H5.89325C5.66294 1.09961 5.47657 1.28601 5.47657 1.51636C5.47657 1.7467 5.66294 1.9331 5.89325 1.9331H14.054L0.598643 15.3906C0.435869 15.5534 0.435869 15.8171 0.598643 15.9799C0.680009 16.0613 0.78665 16.102 0.893252 16.102C0.999853 16.102 1.10645 16.0613 1.18786 15.9799L14.6433 2.52237V10.6844C14.6433 10.9148 14.8296 11.1012 15.0599 11.1012C15.2902 11.1012 15.4766 10.9148 15.4766 10.6844V1.51636C15.4766 1.28601 15.2902 1.09961 15.0599 1.09961Z" fill="white"/>
</g>
<defs>
<clipPath id="clip0_1_14783">
<rect width="15" height="15.94" fill="white" transform="translate(0.476562 0.470703)"/>
</clipPath>
</defs>
</svg>
