<svg width="80" height="80" viewBox="0 0 80 80" fill="none" xmlns="http://www.w3.org/2000/svg">
<path fill-rule="evenodd" clip-rule="evenodd" d="M50.8056 66.8769C49.0044 68.9486 48.4853 69.0598 48.2892 69.1031C46.734 69.4414 46.1 67.6483 45.8604 66.9737C45.8205 66.8598 45.7808 66.7441 45.742 66.6292C45.3879 67.1822 45.005 67.8311 44.58 68.2903C42.9572 70.0441 41.0735 68.8654 41.096 66.6899C41.1058 65.7438 41.008 64.6478 40.8276 64.2276C40.5676 64.2798 40.129 64.5414 39.5164 65.3759L37.0252 68.7686C36.6725 69.2489 35.9984 69.3465 35.524 68.9983C35.0484 68.6484 34.9453 67.9756 35.2952 67.4982L37.7864 64.1055C38.5252 63.1009 39.2621 62.4842 40.0434 62.2211C41.3392 61.785 42.4415 62.2804 42.8719 63.5729C43.1197 64.3143 43.2436 65.309 43.2436 66.5314C43.9962 65.5553 44.8287 63.3763 46.4029 63.8947C47.4263 64.2318 47.6111 65.6522 48.0468 66.6833C48.4407 66.2911 48.8211 65.8855 49.1871 65.4671C49.3741 65.2527 49.6386 65.1213 49.9224 65.1018C50.2063 65.0823 50.4863 65.1763 50.7008 65.3631C50.8071 65.4556 50.8942 65.5681 50.957 65.6943C51.0198 65.8204 51.0571 65.9577 51.0669 66.0983C51.0766 66.2389 51.0585 66.38 51.0137 66.5136C50.9689 66.6472 50.8982 66.7706 50.8056 66.8769ZM36.1996 42.4399C36.1997 42.1553 36.3128 41.8824 36.5141 41.6811C36.7153 41.4799 36.9882 41.3668 37.2728 41.3666H47.0468C47.3314 41.3666 47.6044 41.4797 47.8057 41.681C48.007 41.8823 48.12 42.1553 48.12 42.4399C48.12 42.7246 48.007 42.9976 47.8057 43.1989C47.6044 43.4001 47.3314 43.5132 47.0468 43.5132H37.2728C36.9882 43.5131 36.7153 43.4 36.5141 43.1987C36.3128 42.9975 36.1997 42.7245 36.1996 42.4399ZM52.9117 56.8028H37.273C36.9883 56.8028 36.7154 56.6897 36.5141 56.4885C36.3128 56.2872 36.1997 56.0142 36.1997 55.7295C36.1997 55.4449 36.3128 55.1719 36.5141 54.9706C36.7154 54.7693 36.9883 54.6562 37.273 54.6562H52.9117C53.1963 54.6564 53.4692 54.7696 53.6704 54.9708C53.8717 55.172 53.9848 55.4449 53.985 55.7295C53.985 56.0142 53.8719 56.2871 53.6706 56.4884C53.4693 56.6897 53.1964 56.8028 52.9117 56.8028ZM36.1996 49.0843C36.1997 48.7997 36.3129 48.5269 36.5142 48.3258C36.7154 48.1247 36.9883 48.0117 37.2728 48.0118H52.9116C53.5039 48.0118 53.9848 48.4919 53.9848 49.0843C53.9848 49.6766 53.5039 50.1575 52.9116 50.1575H37.2728C36.9882 50.1574 36.7153 50.0443 36.5141 49.843C36.3128 49.6418 36.1997 49.3689 36.1996 49.0843ZM73.3627 45.0478L58.1463 64.6823L56.0756 65.6662L56.5132 63.4174L71.7296 43.7838L71.7839 43.7766L73.3554 44.9937C73.3717 45.0054 73.3744 45.0342 73.3627 45.0478ZM56.9264 72.5039C57.1488 72.5038 57.3621 72.4155 57.5194 72.2584C57.6767 72.1012 57.7653 71.8881 57.7656 71.6657V67.2404L55.0783 68.5182C54.2908 68.8939 53.3952 68.2132 53.5645 67.3444L54.4562 62.7562C54.4874 62.5914 54.5575 62.4364 54.6605 62.3041L57.7656 58.2993V41.5702H54.8839C53.2381 41.5702 51.9008 40.231 51.9008 38.5871V35.7054H33.2581C32.796 35.7054 32.4199 36.0798 32.4199 36.5418V71.666C32.4202 71.8882 32.5086 72.1013 32.6657 72.2584C32.8229 72.4155 33.0359 72.504 33.2581 72.5042L56.9264 72.5039ZM22.8621 42.0494C22.698 41.5458 23.0029 40.8231 23.5367 40.7518L30.2732 39.8531V64.8841L22.8621 42.0494ZM28.2776 65.6852L22.5474 48.0318L18.5733 50.2354C18.0477 50.5258 17.6976 51.3086 18.0716 51.8161L28.2776 65.6852ZM10.7354 60.5681H21.8476L16.3434 53.0882C15.1944 51.5257 15.8749 49.2756 17.5316 48.3582L21.8728 45.9519L20.8204 42.7111C20.2456 40.9391 21.3746 38.8755 23.2536 38.6249L30.2733 37.6863V36.5415C30.2733 34.8967 31.6125 33.5585 33.2581 33.5585H46.3397V30.5799C46.1239 30.4357 45.9229 30.2707 45.7394 30.0871L29.2623 13.6103C28.8655 13.2134 28.2106 13.2134 27.8138 13.6103L11.3367 30.0873C11.1535 30.2715 10.952 30.4366 10.7354 30.5801V60.5681ZM7.34549 28.5708C6.66613 27.8915 6.66613 26.7761 7.34549 26.0967L24.1768 9.26633C26.5658 6.87545 30.4567 6.87369 32.8503 9.26089L49.7296 26.0969C50.812 27.1763 50.0711 29.0791 48.4936 29.0791C48.0244 29.0791 47.5848 28.8991 47.2575 28.57L30.7805 12.0939C29.5416 10.855 27.5319 10.8574 26.2956 12.0921L9.81941 28.5708C9.14133 29.2491 8.02357 29.2489 7.34549 28.5708ZM54.0464 37.2217L56.2474 39.4235H54.8839C54.662 39.4232 54.4493 39.3351 54.2923 39.1783C54.1354 39.0215 54.047 38.8088 54.0466 38.587L54.0464 37.2217ZM74.6703 43.2972L73.0997 42.0793C72.1466 41.3415 70.7724 41.5153 70.0343 42.4691L59.9114 55.5289V40.4969C59.9114 40.2121 59.7984 39.939 59.5967 39.7374L53.7319 33.8726C53.5305 33.6717 53.2576 33.5588 52.9732 33.5588H48.4863V31.2249C51.9912 31.2249 53.6717 26.9995 51.2469 24.5779L34.3658 7.74089C31.1359 4.51913 25.885 4.52361 22.6586 7.74809L5.82821 24.5787C3.40277 27.0055 5.08949 31.2247 8.58885 31.2247V61.6414C8.58885 61.7823 8.61661 61.9219 8.67054 62.0521C8.72448 62.1823 8.80354 62.3006 8.9032 62.4003C9.00287 62.5 9.12118 62.579 9.2514 62.633C9.38162 62.6869 9.52118 62.7147 9.66213 62.7147H23.4272L30.3021 72.0582C30.4956 73.5185 31.7461 74.6507 33.2581 74.6507H56.9264C58.5722 74.6507 59.9112 73.3114 59.9112 71.6658V65.9076L75.0599 46.3635C75.7978 45.4105 75.6234 44.0351 74.6703 43.2972Z" fill="#175730"/>
</svg>
