<svg width="80" height="80" viewBox="0 0 80 80" fill="none" xmlns="http://www.w3.org/2000/svg">
<path d="M68.7081 27.8224L69.7606 26.7699L69.7919 26.8012C69.9743 26.9839 70.1909 27.1289 70.4295 27.2279C70.668 27.3268 70.9237 27.3777 71.1819 27.3777C71.4401 27.3777 71.6958 27.3268 71.9343 27.2279C72.1728 27.1289 72.3895 26.9839 72.5719 26.8012L74.1981 25.1737C74.3808 24.9912 74.5256 24.7745 74.6245 24.536C74.7233 24.2975 74.7742 24.0418 74.7742 23.7837C74.7742 23.5255 74.7233 23.2698 74.6245 23.0313C74.5256 22.7928 74.3808 22.5761 74.1981 22.3937L69.9319 18.1262C69.5575 17.7689 69.06 17.5696 68.5425 17.5696C68.0251 17.5696 67.5275 17.7689 67.1531 18.1262L65.5256 19.7537C65.343 19.9361 65.1981 20.1528 65.0993 20.3913C65.0004 20.6298 64.9496 20.8855 64.9496 21.1437C64.9496 21.4018 65.0004 21.6575 65.0993 21.896C65.1981 22.1345 65.343 22.3512 65.5256 22.5337L65.5569 22.5649L64.4444 23.6774C60.6436 20.6927 56.1163 18.7744 51.3281 18.1199V14.8849H53.4344C54.0632 14.8846 54.6661 14.6346 55.1107 14.19C55.5554 13.7454 55.8053 13.1424 55.8056 12.5137V9.8324C55.805 9.20383 55.5549 8.6012 55.1103 8.15685C54.6657 7.7125 54.063 7.46273 53.4344 7.4624H41.8006C41.1723 7.46306 40.5698 7.71297 40.1255 8.15729C39.6812 8.60161 39.4313 9.20404 39.4306 9.8324V12.5137C39.431 13.1422 39.6807 13.745 40.1251 14.1896C40.5694 14.6342 41.1721 14.8842 41.8006 14.8849H43.9081V18.1224C42.4615 18.3147 41.0327 18.6232 39.6356 19.0449C39.3185 19.1417 39.0529 19.3605 38.8971 19.6532C38.7413 19.9459 38.7082 20.2884 38.805 20.6055C38.9018 20.9226 39.1206 21.1883 39.4133 21.3441C39.706 21.4998 40.0485 21.533 40.3656 21.4362C44.5713 20.152 49.0424 20.0071 53.3224 21.0163C57.6023 22.0255 61.5378 24.1526 64.7267 27.1803C67.9156 30.208 70.2438 34.0279 71.4734 38.2498C72.7031 42.4718 72.7901 46.9444 71.7256 51.2109C70.6612 55.4775 68.4833 59.3851 65.4146 62.5345C62.3458 65.684 58.4961 67.9626 54.2587 69.1375C50.0212 70.3124 45.5478 70.3415 41.2954 69.222C37.043 68.1024 33.1639 65.8741 30.0544 62.7649C29.9391 62.6455 29.8011 62.5503 29.6486 62.4848C29.4961 62.4193 29.3321 62.3848 29.1661 62.3833C29.0002 62.3819 28.8356 62.4135 28.6819 62.4764C28.5283 62.5392 28.3888 62.632 28.2714 62.7494C28.154 62.8668 28.0612 63.0063 27.9984 63.16C27.9355 63.3136 27.9039 63.4782 27.9053 63.6442C27.9068 63.8101 27.9412 63.9742 28.0068 64.1267C28.0723 64.2792 28.1675 64.4171 28.2869 64.5324C33.2504 69.5046 39.938 72.3745 46.9616 72.5465C53.9851 72.7185 60.8052 70.1793 66.0061 65.456C71.2071 60.7327 74.3896 54.188 74.8929 47.1805C75.3963 40.1729 73.1806 33.2406 68.7081 27.8224ZM68.5419 20.2724L72.0544 23.7837L71.1819 24.6562L67.6694 21.1437L68.5419 20.2724ZM67.3231 24.3324L67.9931 25.0012L67.0269 25.9687C66.8044 25.7437 66.5756 25.5274 66.3456 25.3112L67.3231 24.3324ZM41.9294 12.3849V9.9624H53.3044V12.3849H41.9294ZM46.4069 17.9062V14.8849H48.8281V17.8924C48.4251 17.8731 48.0217 17.8627 47.6181 17.8612C47.2131 17.8612 46.8106 17.8887 46.4069 17.9062Z" fill="#175730"/>
<path d="M63.8554 61.341C68.1277 57.0555 70.5267 51.251 70.5267 45.1998C70.5267 39.1485 68.1277 33.344 63.8554 29.0585C63.8391 29.041 63.8329 29.0185 63.8167 29.001C63.8004 28.9835 63.7766 28.9785 63.7591 28.9635C59.4757 24.688 53.67 22.288 47.6179 22.291C46.2422 22.2905 44.8692 22.4131 43.5154 22.6573C43.3528 22.6854 43.1975 22.7454 43.0582 22.8338C42.919 22.9223 42.7986 23.0374 42.704 23.1726C42.6095 23.3078 42.5426 23.4603 42.5073 23.6215C42.472 23.7826 42.469 23.9492 42.4983 24.1115C42.5277 24.2738 42.5889 24.4287 42.6784 24.5673C42.7679 24.7059 42.884 24.8253 43.0199 24.9188C43.1558 25.0123 43.3089 25.078 43.4703 25.1121C43.6317 25.1461 43.7983 25.1479 43.9604 25.1173C44.7569 24.9799 45.5608 24.8898 46.3679 24.8473V26.8023C46.3679 27.1338 46.4996 27.4517 46.734 27.6862C46.9684 27.9206 47.2864 28.0523 47.6179 28.0523C47.9494 28.0523 48.2674 27.9206 48.5018 27.6862C48.7362 27.4517 48.8679 27.1338 48.8679 26.8023V24.8548C53.4043 25.1285 57.7175 26.9169 61.1166 29.9335L59.7429 31.3073C59.6235 31.4226 59.5283 31.5605 59.4628 31.713C59.3973 31.8655 59.3628 32.0295 59.3613 32.1955C59.3599 32.3615 59.3915 32.5261 59.4544 32.6797C59.5172 32.8333 59.61 32.9729 59.7274 33.0903C59.8448 33.2076 59.9843 33.3004 60.138 33.3633C60.2916 33.4261 60.4562 33.4578 60.6222 33.4563C60.7881 33.4549 60.9521 33.4204 61.1047 33.3549C61.2572 33.2894 61.3951 33.1942 61.5104 33.0748L62.8841 31.701C65.9009 35.1005 67.6893 39.4142 67.9629 43.951H66.0154C65.6839 43.951 65.3659 44.0827 65.1315 44.3171C64.8971 44.5515 64.7654 44.8695 64.7654 45.201C64.7654 45.5325 64.8971 45.8505 65.1315 46.0849C65.3659 46.3193 65.6839 46.451 66.0154 46.451H67.9629C67.6892 50.9874 65.9007 55.3007 62.8841 58.6998L61.5104 57.3248C61.2758 57.0904 60.9578 56.9588 60.6262 56.9589C60.2946 56.959 59.9767 57.0908 59.7423 57.3254C59.5079 57.5599 59.3763 57.878 59.3764 58.2096C59.3765 58.5412 59.5083 58.8591 59.7429 59.0935L61.1166 60.4673C57.7172 63.484 53.4035 65.2725 48.8666 65.546V63.5985C48.8666 63.267 48.735 62.9491 48.5005 62.7146C48.2661 62.4802 47.9482 62.3485 47.6166 62.3485C47.2851 62.3485 46.9672 62.4802 46.7328 62.7146C46.4983 62.9491 46.3666 63.267 46.3666 63.5985V65.5585C42.207 65.3231 38.2224 63.8053 34.9604 61.2135C34.8324 61.1057 34.684 61.0247 34.524 60.9753C34.3641 60.9259 34.1959 60.9092 34.0293 60.926C33.8628 60.9429 33.7014 60.9931 33.5546 61.0735C33.4078 61.1539 33.2786 61.263 33.1748 61.3943C33.071 61.5256 32.9946 61.6764 32.9501 61.8378C32.9057 61.9992 32.8941 62.1678 32.9161 62.3338C32.9381 62.4997 32.9931 62.6595 33.078 62.8038C33.163 62.948 33.276 63.0738 33.4104 63.1735C37.8042 66.6486 43.3201 68.3915 48.9129 68.0719C54.5058 67.7524 59.7872 65.3927 63.7566 61.4398C63.7754 61.4235 63.7992 61.4173 63.8167 61.3998C63.8342 61.3823 63.8391 61.3585 63.8554 61.341Z" fill="#175730"/>
<path d="M58.2852 34.5323C58.0508 34.2979 57.7329 34.1663 57.4014 34.1663C57.07 34.1663 56.7521 34.2979 56.5177 34.5323L49.5114 41.5398C48.9283 41.229 48.2785 41.0643 47.6177 41.0598C46.7986 41.0595 45.9978 41.3022 45.3166 41.7571C44.6354 42.212 44.1044 42.8587 43.7908 43.6154C43.4772 44.3721 43.395 45.2048 43.5546 46.0082C43.7143 46.8116 44.1086 47.5496 44.6877 48.1289C45.2668 48.7082 46.0047 49.1027 46.8081 49.2626C47.6114 49.4225 48.4442 49.3406 49.2009 49.0272C49.9577 48.7137 50.6046 48.183 51.0597 47.5019C51.5148 46.8209 51.7577 46.0201 51.7577 45.201C51.7531 44.5402 51.5884 43.8904 51.2777 43.3073L58.2852 36.301C58.4014 36.1849 58.4936 36.0471 58.5565 35.8953C58.6194 35.7436 58.6518 35.5809 58.6518 35.4166C58.6518 35.2524 58.6194 35.0897 58.5565 34.938C58.4936 34.7862 58.4014 34.6484 58.2852 34.5323ZM47.6177 46.841C47.3475 46.8416 47.0814 46.7755 46.8429 46.6485C46.6044 46.5216 46.401 46.3377 46.2506 46.1133C46.1002 45.8889 46.0076 45.6308 45.9809 45.3619C45.9542 45.0931 45.9943 44.8218 46.0976 44.5722C46.2009 44.3225 46.3642 44.1023 46.5731 43.9309C46.782 43.7596 47.0299 43.6424 47.2949 43.5899C47.5599 43.5373 47.8338 43.551 48.0922 43.6297C48.3507 43.7084 48.5857 43.8497 48.7764 44.041C49.0059 44.2703 49.1621 44.5625 49.2255 44.8806C49.2889 45.1987 49.2565 45.5284 49.1325 45.8281C49.0085 46.1278 48.7983 46.384 48.5287 46.5643C48.2591 46.7446 47.942 46.8409 47.6177 46.841ZM33.2802 24.791H25.3889C25.0574 24.791 24.7395 24.6593 24.5051 24.4249C24.2706 24.1905 24.1389 23.8725 24.1389 23.541C24.1389 23.2095 24.2706 22.8916 24.5051 22.6571C24.7395 22.4227 25.0574 22.291 25.3889 22.291H33.2802C33.6117 22.291 33.9297 22.4227 34.1641 22.6571C34.3985 22.8916 34.5302 23.2095 34.5302 23.541C34.5302 23.8725 34.3985 24.1905 34.1641 24.4249C33.9297 24.6593 33.6117 24.791 33.2802 24.791ZM21.3527 24.791H18.8239C18.4924 24.791 18.1745 24.6593 17.9401 24.4249C17.7056 24.1905 17.5739 23.8725 17.5739 23.541C17.5739 23.2095 17.7056 22.8916 17.9401 22.6571C18.1745 22.4227 18.4924 22.291 18.8239 22.291H21.3527C21.6842 22.291 22.0022 22.4227 22.2366 22.6571C22.471 22.8916 22.6027 23.2095 22.6027 23.541C22.6027 23.8725 22.471 24.1905 22.2366 24.4249C22.0022 24.6593 21.6842 24.791 21.3527 24.791ZM37.1352 33.021H16.2327C15.9012 33.021 15.5832 32.8893 15.3488 32.6549C15.1144 32.4205 14.9827 32.1025 14.9827 31.771C14.9827 31.4395 15.1144 31.1216 15.3488 30.8871C15.5832 30.6527 15.9012 30.521 16.2327 30.521H37.1352C37.4667 30.521 37.7847 30.6527 38.0191 30.8871C38.2535 31.1216 38.3852 31.4395 38.3852 31.771C38.3852 32.1025 38.2535 32.4205 38.0191 32.6549C37.7847 32.8893 37.4667 33.021 37.1352 33.021ZM28.1352 41.251H6.29395C5.96242 41.251 5.64448 41.1193 5.41006 40.8849C5.17564 40.6505 5.04395 40.3325 5.04395 40.001C5.04395 39.6695 5.17564 39.3516 5.41006 39.1171C5.64448 38.8827 5.96242 38.751 6.29395 38.751H28.1352C28.4667 38.751 28.7847 38.8827 29.0191 39.1171C29.2535 39.3516 29.3852 39.6695 29.3852 40.001C29.3852 40.3325 29.2535 40.6505 29.0191 40.8849C28.7847 41.1193 28.4667 41.251 28.1352 41.251ZM34.6052 41.251H32.2552C31.9237 41.251 31.6057 41.1193 31.3713 40.8849C31.1369 40.6505 31.0052 40.3325 31.0052 40.001C31.0052 39.6695 31.1369 39.3516 31.3713 39.1171C31.6057 38.8827 31.9237 38.751 32.2552 38.751H34.6052C34.9367 38.751 35.2547 38.8827 35.4891 39.1171C35.7235 39.3516 35.8552 39.6695 35.8552 40.001C35.8552 40.3325 35.7235 40.6505 35.4891 40.8849C35.2547 41.1193 34.9367 41.251 34.6052 41.251ZM39.4252 49.481H20.9002C20.5687 49.481 20.2507 49.3493 20.0163 49.1149C19.7819 48.8805 19.6502 48.5625 19.6502 48.231C19.6502 47.8995 19.7819 47.5816 20.0163 47.3471C20.2507 47.1127 20.5687 46.981 20.9002 46.981H39.4252C39.7567 46.981 40.0747 47.1127 40.3091 47.3471C40.5435 47.5816 40.6752 47.8995 40.6752 48.231C40.6752 48.5625 40.5435 48.8805 40.3091 49.1149C40.0747 49.3493 39.7567 49.481 39.4252 49.481ZM15.6302 57.711H13.4002C13.0687 57.711 12.7507 57.5793 12.5163 57.3449C12.2819 57.1105 12.1502 56.7925 12.1502 56.461C12.1502 56.1295 12.2819 55.8116 12.5163 55.5771C12.7507 55.3427 13.0687 55.211 13.4002 55.211H15.6289C15.9605 55.211 16.2784 55.3427 16.5128 55.5771C16.7472 55.8116 16.8789 56.1295 16.8789 56.461C16.8789 56.7925 16.7472 57.1105 16.5128 57.3449C16.2784 57.5793 15.9617 57.711 15.6302 57.711ZM34.6052 57.711H19.6077C19.2762 57.711 18.9582 57.5793 18.7238 57.3449C18.4894 57.1105 18.3577 56.7925 18.3577 56.461C18.3577 56.1295 18.4894 55.8116 18.7238 55.5771C18.9582 55.3427 19.2762 55.211 19.6077 55.211H34.6052C34.9367 55.211 35.2547 55.3427 35.4891 55.5771C35.7235 55.8116 35.8552 56.1295 35.8552 56.461C35.8552 56.7925 35.7235 57.1105 35.4891 57.3449C35.2547 57.5793 34.9367 57.711 34.6052 57.711Z" fill="#175730"/>
</svg>
