<svg width="80" height="80" viewBox="0 0 80 80" fill="none" xmlns="http://www.w3.org/2000/svg">
<path d="M69.8403 20.241C59.6803 18.561 52.8803 10.961 52.8003 10.881C52.4003 10.401 51.6003 10.401 51.2003 10.881C51.1203 10.961 44.4003 18.561 34.1603 20.241C33.6803 20.321 33.2803 20.801 33.2803 21.281V29.601C34.0003 29.521 34.7203 29.681 35.3603 29.921V22.161C44.0003 20.481 49.9203 15.201 52.0003 13.121C54.0803 15.201 60.0803 20.481 68.6403 22.161V33.681C68.6403 38.881 66.3203 43.681 62.1603 46.881L54.2403 53.041C54.3203 53.441 54.4003 53.921 54.4003 54.401C54.4003 54.881 54.3203 55.281 54.2403 55.761L63.4403 48.561C68.0803 44.961 70.7203 39.601 70.7203 33.761V21.281C70.8003 20.721 70.4003 20.321 69.8403 20.241Z" fill="#175730"/>
<path d="M52.0002 42.4809C58.0002 42.4809 62.8002 37.6009 62.8002 31.6809C62.8002 25.7609 58.0002 20.8809 52.0002 20.8809C46.0002 20.8809 41.2002 25.7609 41.2002 31.6809C41.2002 37.6009 46.0802 42.4809 52.0002 42.4809ZM52.0002 22.9609C56.8002 22.9609 60.7202 26.8809 60.7202 31.6809C60.7202 36.4809 56.8002 40.4009 52.0002 40.4009C47.2002 40.4009 43.2802 36.4809 43.2802 31.6809C43.2802 26.8809 47.2002 22.9609 52.0002 22.9609Z" fill="#175730"/>
<path d="M50.0003 35.5209C50.1603 35.6809 50.4803 35.8409 50.7203 35.8409C50.9603 35.8409 51.2803 35.7609 51.4403 35.5209L56.7203 30.2409C57.1203 29.8409 57.1203 29.2009 56.7203 28.7209C56.3203 28.3209 55.6803 28.3209 55.2003 28.7209L50.7203 33.2009L48.8803 31.3609C48.4803 30.9609 47.8403 30.9609 47.3603 31.3609C46.9603 31.7609 46.9603 32.4009 47.3603 32.8809L50.0003 35.5209ZM52.3203 54.3209C52.3203 52.8809 51.5203 51.6809 50.4003 51.0409C50.8003 50.4009 51.0403 49.6809 51.0403 48.8809C51.0403 46.8009 49.3603 45.1209 47.2803 45.1209H36.6403C36.9603 43.2009 37.6803 39.6809 38.0803 37.6809C38.6403 35.0409 37.3603 32.8809 34.6403 31.8409C33.7603 31.5209 32.8003 31.6009 32.0003 32.0009C31.2003 32.4009 30.6403 33.1209 30.4003 34.0809L29.4403 37.9209C28.4003 41.9209 23.7603 47.3609 23.7603 47.3609C23.2003 48.0009 22.4003 48.4809 21.5203 48.7209V48.0009C21.5203 47.4409 21.0403 46.9609 20.4803 46.9609H10.3203C9.76027 46.9609 9.28027 47.4409 9.28027 48.0009V65.9209C9.28027 66.4809 9.76027 66.9609 10.3203 66.9609H20.5603C21.1203 66.9609 21.6003 66.4809 21.6003 65.9209V65.1209C22.5603 65.1209 23.5203 65.4409 24.3203 66.1609C27.6003 68.8809 32.6403 69.5209 36.5603 69.5209C39.8403 69.5209 42.4803 69.0409 42.6403 69.0409H46.8803C48.9603 69.0409 50.6403 67.3609 50.6403 65.2809C50.6403 64.4009 50.3203 63.6009 49.8403 62.9609C50.8003 62.2409 51.4403 61.1209 51.4403 59.8409C51.4403 58.9609 51.1203 58.1609 50.6403 57.5209C51.6803 56.8009 52.3203 55.6809 52.3203 54.3209ZM19.4403 64.8009H11.3603V48.9609H19.4403V64.8009ZM42.2403 47.2809H47.3603C48.2403 47.2809 49.0403 48.0009 49.0403 48.9609C49.0403 49.9209 48.3203 50.6409 47.3603 50.6409H42.2403C41.3603 50.6409 40.5603 49.9209 40.5603 48.9609C40.5603 48.0009 41.2803 47.2809 42.2403 47.2809ZM39.4403 67.2009C35.6803 67.5209 29.2803 67.4409 25.6003 64.4809C24.4003 63.4409 22.9603 62.9609 21.5203 62.9609V50.8009C23.0403 50.5609 24.4003 49.8409 25.3603 48.6409C25.6003 48.4009 30.3203 42.8009 31.5203 38.3209L32.4803 34.4809C32.5603 34.1609 32.7203 33.9209 33.0403 33.8409C33.2803 33.6809 33.6003 33.6809 33.9203 33.7609C36.3203 34.6409 36.3203 36.1609 36.0803 37.2009C35.4403 40.0809 34.4003 45.9209 34.4003 46.0009C34.3203 46.3209 34.4003 46.6409 34.6403 46.8809C34.8803 47.1209 35.1203 47.2809 35.4403 47.2809H38.7203C38.2403 49.2009 36.5603 53.3609 30.4803 54.0009C29.9203 54.0809 29.5203 54.5609 29.5203 55.1209C29.6003 55.6809 30.0003 56.0809 30.5603 56.0809H30.6403C33.6803 55.7609 35.8403 54.6409 37.3603 53.3609C37.2803 53.6809 37.2003 54.0009 37.2003 54.4009C37.2003 55.6809 37.8403 56.8809 38.8803 57.5209C38.4003 58.1609 38.0803 58.9609 38.0803 59.8409C38.0803 61.1209 38.7203 62.2409 39.6803 62.9609C39.2003 63.6009 38.8803 64.4009 38.8803 65.2809C38.8803 65.9209 39.0403 66.6409 39.4403 67.2009ZM46.9603 66.8809H42.6403C41.7603 66.8809 40.9603 66.1609 40.9603 65.2009C40.9603 64.2409 41.6803 63.5209 42.6403 63.5209H46.9603C47.8403 63.5209 48.6403 64.2409 48.6403 65.2009C48.6403 66.1609 47.8403 66.8809 46.9603 66.8809ZM47.7603 61.4409H41.8403C40.9603 61.4409 40.1603 60.7209 40.1603 59.7609C40.1603 58.8009 40.8803 58.0809 41.8403 58.0809H47.7603C48.6403 58.0809 49.4403 58.8009 49.4403 59.7609C49.4403 60.7209 48.6403 61.4409 47.7603 61.4409ZM48.5603 56.0009H40.9603C40.0803 56.0009 39.2803 55.2809 39.2803 54.3209C39.2803 53.3609 40.0003 52.6409 40.9603 52.6409H48.5603C49.4403 52.6409 50.2403 53.3609 50.2403 54.3209C50.2403 55.2809 49.5203 56.0009 48.5603 56.0009Z" fill="#175730"/>
<path d="M15.3606 62.8008C16.3206 62.8008 17.1206 62.0008 17.1206 61.0408C17.1206 60.0808 16.3206 59.2808 15.3606 59.2808C14.4006 59.2808 13.6006 60.0808 13.6006 61.0408C13.6006 62.0008 14.4006 62.8008 15.3606 62.8008Z" fill="#175730"/>
</svg>
