<svg width="21" height="22" viewBox="0 0 21 22" fill="none" xmlns="http://www.w3.org/2000/svg">
<path d="M10.5375 18.6414C9.43526 17.7012 8.41357 16.6704 7.48312 15.5599C6.08682 13.8922 4.42871 11.4085 4.42871 9.0418C4.42811 7.8331 4.78608 6.65138 5.45734 5.6462C6.1286 4.64102 7.08296 3.85757 8.19965 3.39499C9.31634 2.93242 10.5452 2.81151 11.7306 3.04757C12.916 3.28363 14.0048 3.86606 14.8591 4.72113C15.4278 5.28738 15.8787 5.96081 16.1855 6.70246C16.4922 7.4441 16.6489 8.23922 16.6463 9.0418C16.6463 11.4085 14.9882 13.8922 13.5919 15.5599C12.6615 16.6704 11.6398 17.7011 10.5375 18.6414ZM10.5375 6.42374C9.84317 6.42374 9.17725 6.69957 8.68627 7.19056C8.19529 7.68154 7.91946 8.34745 7.91946 9.0418C7.91946 9.73616 8.19529 10.4021 8.68627 10.8931C9.17725 11.384 9.84317 11.6599 10.5375 11.6599C11.2319 11.6599 11.8978 11.384 12.3888 10.8931C12.8798 10.4021 13.1556 9.73616 13.1556 9.0418C13.1556 8.34745 12.8798 7.68154 12.3888 7.19056C11.8978 6.69957 11.2319 6.42374 10.5375 6.42374Z" fill="#175730"/>
</svg>
