<svg width="20" height="21" viewBox="0 0 20 21" fill="none" xmlns="http://www.w3.org/2000/svg">
<path d="M3.43655 9.04345C3.27415 9.04345 3.1184 8.97894 3.00357 8.8641C2.88873 8.74927 2.82422 8.59352 2.82422 8.43112V3.53372C2.82422 3.37132 2.88873 3.21557 3.00357 3.10073C3.1184 2.9859 3.27415 2.92139 3.43655 2.92139H8.33518C8.49758 2.92139 8.65333 2.9859 8.76816 3.10073C8.88299 3.21557 8.94751 3.37132 8.94751 3.53372V8.43112C8.94751 8.59352 8.88299 8.74927 8.76816 8.8641C8.65333 8.97894 8.49758 9.04345 8.33518 9.04345H3.43655ZM12.0091 9.04345C11.8467 9.04345 11.691 8.97894 11.5762 8.8641C11.4613 8.74927 11.3968 8.59352 11.3968 8.43112V3.53372C11.3968 3.37132 11.4613 3.21557 11.5762 3.10073C11.691 2.9859 11.8467 2.92139 12.0091 2.92139H16.9066C17.069 2.92139 17.2247 2.9859 17.3395 3.10073C17.4544 3.21557 17.5189 3.37132 17.5189 3.53372V8.43112C17.5189 8.59352 17.4544 8.74927 17.3395 8.8641C17.2247 8.97894 17.069 9.04345 16.9066 9.04345H12.0091ZM3.43655 17.6161C3.27415 17.6161 3.1184 17.5515 3.00357 17.4367C2.88873 17.3219 2.82422 17.1661 2.82422 17.0037V12.1051C2.82422 11.9427 2.88873 11.7869 3.00357 11.6721C3.1184 11.5573 3.27415 11.4928 3.43655 11.4928H8.33518C8.49758 11.4928 8.65333 11.5573 8.76816 11.6721C8.88299 11.7869 8.94751 11.9427 8.94751 12.1051V17.0037C8.94751 17.1661 8.88299 17.3219 8.76816 17.4367C8.65333 17.5515 8.49758 17.6161 8.33518 17.6161H3.43655ZM12.0091 17.6161C11.8467 17.6161 11.691 17.5515 11.5762 17.4367C11.4613 17.3219 11.3968 17.1661 11.3968 17.0037V12.1051C11.3968 11.9427 11.4613 11.7869 11.5762 11.6721C11.691 11.5573 11.8467 11.4928 12.0091 11.4928H16.9066C17.069 11.4928 17.2247 11.5573 17.3395 11.6721C17.4544 11.7869 17.5189 11.9427 17.5189 12.1051V17.0037C17.5189 17.1661 17.4544 17.3219 17.3395 17.4367C17.2247 17.5515 17.069 17.6161 16.9066 17.6161H12.0091Z" fill="#175730"/>
</svg>
