<svg width="20" height="21" viewBox="0 0 20 21" fill="none" xmlns="http://www.w3.org/2000/svg">
<g clip-path="url(#clip0_1_14591)">
<path d="M1.54888 15.2537C1.54993 15.7679 1.65957 16.276 1.87061 16.7449C2.08165 17.2137 2.38934 17.6327 2.77353 17.9744V19.54C2.77353 19.7024 2.83805 19.8582 2.95288 19.973C3.06771 20.0878 3.22346 20.1524 3.38586 20.1524H4.61052C4.77292 20.1524 4.92867 20.0878 5.0435 19.973C5.15834 19.8582 5.22285 19.7024 5.22285 19.54V18.9277H15.0201V19.54C15.0201 19.7024 15.0846 19.8582 15.1995 19.973C15.3143 20.0878 15.47 20.1524 15.6324 20.1524H16.8571C17.0195 20.1524 17.1752 20.0878 17.2901 19.973C17.4049 19.8582 17.4694 19.7024 17.4694 19.54V17.9744C17.8536 17.6327 18.1613 17.2137 18.3723 16.7449C18.5834 16.276 18.693 15.7679 18.6941 15.2537V13.4167H1.54888V15.2537ZM19.3064 10.3551H3.38586V3.20807C3.38621 3.04736 3.43415 2.89035 3.52362 2.75685C3.61309 2.62335 3.7401 2.51934 3.88862 2.45794C4.03714 2.39653 4.20051 2.38049 4.35814 2.41182C4.51576 2.44316 4.66058 2.52047 4.77432 2.63401L5.51179 3.37111C5.0093 4.51463 5.22055 5.63328 5.84168 6.42242L5.83518 6.42892C5.72078 6.5437 5.65655 6.69914 5.65655 6.86119C5.65655 7.02324 5.72078 7.17868 5.83518 7.29345L6.26802 7.72629C6.32488 7.78317 6.39239 7.82828 6.46669 7.85907C6.54099 7.88985 6.62063 7.90569 6.70105 7.90569C6.78147 7.90569 6.86111 7.88985 6.93541 7.85907C7.00971 7.82828 7.07722 7.78317 7.13408 7.72629L11.1666 3.69373C11.2235 3.63686 11.2686 3.56936 11.2994 3.49505C11.3302 3.42075 11.346 3.34112 11.346 3.26069C11.346 3.18027 11.3302 3.10063 11.2994 3.02633C11.2686 2.95203 11.2235 2.88453 11.1666 2.82766L10.7338 2.39482C10.619 2.28008 10.4633 2.21562 10.301 2.21562C10.1386 2.21562 9.98295 2.28008 9.86813 2.39482L9.86162 2.40133C9.07248 1.7802 7.9546 1.56894 6.81031 2.07144L6.07322 1.33396C5.70258 0.963278 5.23033 0.710832 4.71621 0.608554C4.20208 0.506276 3.66918 0.55876 3.18488 0.759368C2.70059 0.959976 2.28666 1.2997 1.99545 1.73557C1.70424 2.17144 1.54883 2.68387 1.54888 3.20807V10.3551H0.936548C0.774148 10.3551 0.6184 10.4196 0.503566 10.5344C0.388732 10.6493 0.324219 10.805 0.324219 10.9674L0.324219 11.5798C0.324219 11.7422 0.388732 11.8979 0.503566 12.0127C0.6184 12.1276 0.774148 12.1921 0.936548 12.1921H19.3064C19.4688 12.1921 19.6246 12.1276 19.7394 12.0127C19.8542 11.8979 19.9187 11.7422 19.9187 11.5798V10.9674C19.9187 10.805 19.8542 10.6493 19.7394 10.5344C19.6246 10.4196 19.4688 10.3551 19.3064 10.3551Z" fill="#175730"/>
</g>
<defs>
<clipPath id="clip0_1_14591">
<rect width="19.5945" height="19.5945" fill="white" transform="translate(0.323242 0.557861)"/>
</clipPath>
</defs>
</svg>
