<svg width="20" height="21" viewBox="0 0 20 21" fill="none" xmlns="http://www.w3.org/2000/svg">
<g clip-path="url(#clip0_1_14587)">
<path d="M5.75959 10.3545C7.11008 10.3545 8.2089 8.98101 8.2089 7.29289C8.2089 5.60478 7.11008 4.23125 5.75959 4.23125C4.4091 4.23125 3.31027 5.60478 3.31027 7.29289C3.31027 8.98101 4.4091 10.3545 5.75959 10.3545ZM16.5366 5.45591H9.67849C9.40784 5.45591 9.18863 5.72992 9.18863 6.06824V11.5792H2.33055V3.61892C2.33055 3.28061 2.11133 3.00659 1.84068 3.00659H0.860957C0.590307 3.00659 0.371094 3.28061 0.371094 3.61892V17.0902C0.371094 17.4285 0.590307 17.7025 0.860957 17.7025H1.84068C2.11133 17.7025 2.33055 17.4285 2.33055 17.0902V15.2532H18.0062V17.0902C18.0062 17.4285 18.2254 17.7025 18.496 17.7025H19.4758C19.7464 17.7025 19.9656 17.4285 19.9656 17.0902V9.74221C19.9656 7.37479 18.4305 5.45591 16.5366 5.45591Z" fill="#175730"/>
</g>
<defs>
<clipPath id="clip0_1_14587">
<rect width="19.5945" height="19.5945" fill="white" transform="translate(0.370117 0.557861)"/>
</clipPath>
</defs>
</svg>
