<svg width="33" height="33" viewBox="0 0 33 33" fill="none" xmlns="http://www.w3.org/2000/svg">
<path fill-rule="evenodd" clip-rule="evenodd" d="M8.74275 14.5193C7.43907 14.5193 7.16699 14.7751 7.16699 16.0007V18.223C7.16699 19.4487 7.43907 19.7045 8.74275 19.7045H11.8943V28.5934C11.8943 29.819 12.1663 30.0749 13.47 30.0749H16.6215C17.9253 30.0749 18.1973 29.819 18.1973 28.5934V19.7045H21.7359C22.7247 19.7045 22.9795 19.5238 23.2511 18.6301L23.9265 16.4078C24.3917 14.8767 24.105 14.5193 22.4113 14.5193H18.1973V10.8156C18.1973 9.99742 18.9027 9.33412 19.773 9.33412H24.2579C25.5615 9.33412 25.8337 9.07832 25.8337 7.85264V4.88968C25.8337 3.664 25.5615 3.4082 24.2579 3.4082H19.773C15.4217 3.4082 11.8943 6.72462 11.8943 10.8156V14.5193H8.74275Z" fill="white"/>
</svg>
