<svg width="33" height="33" viewBox="0 0 33 33" fill="none" xmlns="http://www.w3.org/2000/svg">
<path d="M3.83301 16.7409C3.83301 10.7698 3.83301 7.78421 5.68799 5.92921C7.54299 4.07422 10.5286 4.07422 16.4997 4.07422C22.4707 4.07422 25.4563 4.07422 27.3114 5.92921C29.1663 7.78421 29.1663 10.7698 29.1663 16.7409C29.1663 22.712 29.1663 25.6976 27.3114 27.5526C25.4563 29.4076 22.4707 29.4076 16.4997 29.4076C10.5286 29.4076 7.54299 29.4076 5.68799 27.5526C3.83301 25.6976 3.83301 22.712 3.83301 16.7409Z" fill="white"/>
<path d="M22.5 16.7412C22.5 20.0549 19.8137 22.7412 16.5 22.7412C13.1863 22.7412 10.5 20.0549 10.5 16.7412C10.5 13.4275 13.1863 10.7412 16.5 10.7412C19.8137 10.7412 22.5 13.4275 22.5 16.7412Z" stroke="#165831" stroke-width="1.5"/>
<path d="M23.844 9.4082H23.832" stroke="#165831" stroke-width="2" stroke-linecap="round" stroke-linejoin="round"/>
</svg>
