<svg width="32" height="33" viewBox="0 0 32 33" fill="none" xmlns="http://www.w3.org/2000/svg">
<path d="M2.66699 8.74121L11.8844 13.9638C15.2825 15.8892 16.7182 15.8892 20.1163 13.9638L29.3337 8.74121" stroke="white" stroke-width="2" stroke-linejoin="round"/>
<path d="M2.68802 18.709C2.77518 22.7965 2.81877 24.8401 4.32694 26.3541C5.8351 27.8679 7.9341 27.9206 12.1321 28.0261C14.7194 28.0911 17.2813 28.0911 19.8686 28.0261C24.0666 27.9206 26.1655 27.8679 27.6738 26.3541C29.1819 24.8401 29.2255 22.7965 29.3126 18.709C29.3407 17.3947 29.3407 16.0883 29.3126 14.7741C29.2255 10.6867 29.1819 8.64299 27.6738 7.12908C26.1655 5.61518 24.0666 5.56244 19.8686 5.45696C17.2813 5.39195 14.7194 5.39195 12.1321 5.45695C7.9341 5.56242 5.8351 5.61515 4.32693 7.12907C2.81875 8.64298 2.77518 10.6867 2.68801 14.7741C2.65998 16.0883 2.65999 17.3947 2.68802 18.709Z" stroke="white" stroke-width="2" stroke-linejoin="round"/>
</svg>
