<svg width="33" height="33" viewBox="0 0 33 33" fill="none" xmlns="http://www.w3.org/2000/svg">
<path d="M25.8333 4.74121C26.5406 4.74121 27.2189 5.02216 27.719 5.52226C28.219 6.02236 28.5 6.70063 28.5 7.40788V26.0745C28.5 26.7818 28.219 27.4601 27.719 27.9602C27.2189 28.4603 26.5406 28.7412 25.8333 28.7412H7.16667C6.45942 28.7412 5.78115 28.4603 5.28105 27.9602C4.78095 27.4601 4.5 26.7818 4.5 26.0745V7.40788C4.5 6.70063 4.78095 6.02236 5.28105 5.52226C5.78115 5.02216 6.45942 4.74121 7.16667 4.74121H25.8333ZM25.1667 25.4079V18.3412C25.1667 17.1884 24.7087 16.0828 23.8936 15.2677C23.0784 14.4525 21.9728 13.9945 20.82 13.9945C19.6867 13.9945 18.3667 14.6879 17.7267 15.7279V14.2479H14.0067V25.4079H17.7267V18.8345C17.7267 17.8079 18.5533 16.9679 19.58 16.9679C20.0751 16.9679 20.5499 17.1645 20.8999 17.5146C21.25 17.8647 21.4467 18.3395 21.4467 18.8345V25.4079H25.1667ZM9.67333 12.1545C10.2674 12.1545 10.8372 11.9185 11.2573 11.4985C11.6773 11.0784 11.9133 10.5086 11.9133 9.91454C11.9133 8.67454 10.9133 7.66121 9.67333 7.66121C9.07571 7.66121 8.50257 7.89861 8.07999 8.3212C7.6574 8.74378 7.42 9.31692 7.42 9.91454C7.42 11.1545 8.43333 12.1545 9.67333 12.1545ZM11.5267 25.4079V14.2479H7.83333V25.4079H11.5267Z" fill="white"/>
</svg>
