<svg width="48" height="49" viewBox="0 0 48 49" fill="none" xmlns="http://www.w3.org/2000/svg">
<path fill-rule="evenodd" clip-rule="evenodd" d="M32.0985 29.2276C32.359 29.4717 32.3698 29.8787 32.1257 30.1337L28.3279 34.1593C28.0762 34.4243 27.657 34.4272 27.4056 34.1702L25.5284 32.293C25.2788 32.0434 25.2788 31.6365 25.5284 31.3816C25.778 31.132 26.1848 31.132 26.4398 31.3816L27.8504 32.7922L31.1871 29.2548C31.4366 28.9943 31.8436 28.9835 32.0985 29.2276ZM32.6248 35.6405C34.6865 33.5734 34.6865 30.2205 32.6248 28.1535C30.5631 26.0918 27.2048 26.0918 25.1431 28.1535C23.0761 30.2205 23.0761 33.5734 25.1431 35.6405C27.2078 37.7051 30.5658 37.6995 32.6248 35.6405ZM33.5362 27.2473C30.97 24.6811 26.7979 24.6811 24.2316 27.2473C21.6654 29.8081 21.6654 33.9857 24.2316 36.5519C26.7944 39.1147 30.9725 39.1102 33.5362 36.5519C36.1025 33.9858 36.1025 29.8081 33.5362 27.2473ZM39.8732 43.9739L37.014 41.1147L38.0991 40.0296L40.9637 42.8888L39.8732 43.9739ZM35.2724 38.2881C35.3321 38.2284 35.3863 38.1741 35.4406 38.1145L36.8187 39.4871L36.4768 39.8344L35.0987 38.4563C35.1584 38.4019 35.2181 38.3477 35.2724 38.2881ZM23.4016 37.3766C26.4263 40.4011 31.3421 40.4008 34.361 37.3766C37.3829 34.3546 37.3829 29.4392 34.361 26.4172C31.339 23.3952 26.4236 23.3952 23.4016 26.4172C20.3796 29.4392 20.3796 34.3547 23.4016 37.3766ZM11.9431 34.0128H20.0976C19.3923 31.0559 20.1898 27.8116 22.4902 25.5058C24.8883 23.1077 28.3062 22.3428 31.3553 23.2054V18.0568L21.2423 7.94374C21.1793 7.88054 21.1045 7.8304 21.0221 7.79619C20.9397 7.76198 20.8513 7.74437 20.7621 7.74437C20.6729 7.74437 20.5846 7.76198 20.5022 7.79619C20.4198 7.8304 20.345 7.88054 20.282 7.94374L10.1691 18.0568V32.1954C10.1691 33.199 10.9665 34.0128 11.9431 34.0128ZM7.36413 17.4328C6.92282 16.9914 6.92291 16.2681 7.36413 15.8269L17.987 5.19852C19.5061 3.67942 21.9855 3.67942 23.5101 5.19852L34.1602 15.8269C34.8814 16.5382 34.369 17.7638 33.3573 17.7638C33.0534 17.7638 32.7659 17.6444 32.5543 17.4329L22.1538 7.03222C21.3861 6.2645 20.1414 6.2669 19.3706 7.03222L8.97002 17.4328C8.5288 17.874 7.80534 17.874 7.36413 17.4328ZM41.8805 41.9882L39.0051 39.1127C38.7067 38.8089 38.2943 38.6949 37.9037 38.7547L36.2653 37.1161C38.7556 33.5897 38.43 28.6633 35.2725 25.5058C34.4912 24.7245 33.596 24.1115 32.6466 23.6775V18.9465C34.1627 19.4157 35.7824 18.2957 35.7824 16.6298C35.7824 15.9787 35.5328 15.3712 35.0717 14.9154L24.4161 4.287C22.3925 2.26332 19.0993 2.26879 17.0755 4.29247L6.45261 14.9154C4.95414 16.4139 5.98192 19.0496 8.16707 19.0496C8.4112 19.0496 8.65533 19.017 8.88323 18.9465V32.1954C8.88323 33.9098 10.2558 35.3041 11.9431 35.3041H20.5099C22.6998 40.7114 29.3954 42.609 34.1005 39.2809L35.739 40.9194C35.6721 41.3209 35.8068 41.7281 36.0971 42.0154L38.9726 44.8963C39.4657 45.3898 40.289 45.3865 40.7792 44.8963L41.8806 43.7949C42.3781 43.2917 42.3805 42.4882 41.8805 41.9882ZM18.1769 20.6935C18.1769 20.8779 18.025 21.0299 17.835 21.0299H15.3393C15.1494 21.0299 14.9975 20.8779 14.9975 20.6935V18.1923C14.9975 18.0079 15.1494 17.8559 15.3393 17.8559H17.835C18.0249 17.8559 18.1769 18.0078 18.1769 18.1923V20.6935ZM17.8351 16.5647C18.7358 16.5647 19.4628 17.2971 19.4628 18.1923V20.6934C19.4628 21.5886 18.7358 22.3156 17.8351 22.3156H15.3394C14.4388 22.3156 13.7117 21.5886 13.7117 20.6934V18.1923C13.7117 17.2971 14.4388 16.5647 15.3394 16.5647H17.8351ZM18.1769 29.0432C18.1769 29.2331 18.025 29.3796 17.835 29.3796H15.3393C15.1494 29.3796 14.9975 29.2331 14.9975 29.0432V26.5421C14.9975 26.3576 15.1494 26.2057 15.3393 26.2057H17.835C18.0249 26.2057 18.1769 26.3576 18.1769 26.5421V29.0432ZM17.8351 24.9199C18.7358 24.9199 19.4628 25.6469 19.4628 26.5421V29.0432C19.4628 29.9384 18.7358 30.6709 17.8351 30.6709H15.3394C14.4388 30.6709 13.7117 29.9384 13.7117 29.0432V26.5421C13.7117 25.6469 14.4388 24.9199 15.3394 24.9199H17.8351ZM23.3527 18.1923C23.3532 18.1032 23.3888 18.0179 23.4518 17.955C23.5148 17.892 23.6 17.8564 23.6891 17.8559H26.1902C26.2793 17.8564 26.3646 17.8919 26.4276 17.9549C26.4906 18.0179 26.5262 18.1032 26.5266 18.1923V20.6934C26.5261 20.7825 26.4906 20.8678 26.4276 20.9308C26.3646 20.9937 26.2793 21.0293 26.1902 21.0298H23.6891C23.6 21.0293 23.5148 20.9937 23.4518 20.9308C23.3888 20.8678 23.3532 20.7825 23.3527 20.6934V18.1923ZM23.6891 22.3156C22.7939 22.3156 22.0615 21.5886 22.0615 20.6934V18.1923C22.0615 17.2971 22.7939 16.5647 23.6891 16.5647H26.1902C27.0854 16.5647 27.8124 17.2971 27.8124 18.1923V20.6934C27.8124 21.5886 27.0854 22.3156 26.1902 22.3156H23.6891Z" fill="#175730"/>
</svg>
