<svg width="32" height="33" viewBox="0 0 32 33" fill="none" xmlns="http://www.w3.org/2000/svg">
<path d="M6.66699 12.7415C6.66699 8.34176 6.66699 6.14187 8.03383 4.77504C9.40066 3.4082 11.6006 3.4082 16.0003 3.4082C20.4001 3.4082 22.5999 3.4082 23.9669 4.77504C25.3337 6.14187 25.3337 8.34176 25.3337 12.7415V20.7415C25.3337 25.1413 25.3337 27.3411 23.9669 28.7081C22.5999 30.0749 20.4001 30.0749 16.0003 30.0749C11.6006 30.0749 9.40066 30.0749 8.03383 28.7081C6.66699 27.3411 6.66699 25.1413 6.66699 20.7415V12.7415Z" stroke="white" stroke-width="2" stroke-linecap="round"/>
<path d="M14.667 26.0742H17.3337" stroke="white" stroke-width="2" stroke-linecap="round" stroke-linejoin="round"/>
<path d="M12 3.4082L12.1187 4.12023C12.3758 5.66326 12.5044 6.43478 13.0336 6.90426C13.5856 7.39399 14.3681 7.4082 16 7.4082C17.6319 7.4082 18.4144 7.39399 18.9664 6.90426C19.4956 6.43478 19.6241 5.66326 19.8813 4.12023L20 3.4082" stroke="white" stroke-width="2" stroke-linejoin="round"/>
</svg>
